<svg xmlns="http://www.w3.org/2000/svg" width="43" height="43" viewBox="0 0 43 43" fill="none">
  <path fill-rule="evenodd" clip-rule="evenodd" d="M26.445 23.7754L36.7113 34.0417L34.0417 36.7113L23.7754 26.445C21.8583 27.8246 19.5471 28.6667 17.0208 28.6667C10.5888 28.6667 5.375 23.4529 5.375 17.0208C5.375 10.5888 10.5888 5.375 17.0208 5.375C23.4529 5.375 28.6667 10.5888 28.6667 17.0208C28.6667 19.5471 27.8246 21.8583 26.445 23.7754ZM17.0208 8.95833C12.5596 8.95833 8.95833 12.5596 8.95833 17.0208C8.95833 21.4821 12.5596 25.0833 17.0208 25.0833C21.4821 25.0833 25.0833 21.4821 25.0833 17.0208C25.0833 12.5596 21.4821 8.95833 17.0208 8.95833Z" fill="#1C1B1E"/>
</svg>