<svg xmlns="http://www.w3.org/2000/svg" width="38" height="30" viewBox="0 0 38 30" fill="none">
  <path d="M2.02559 0.0101422C1.39559 0.116193 0.831427 0.481203 0.457223 1.02487C0.0830191 1.56855 -0.0705772 2.24634 0.0302236 2.90916C0.131024 3.57198 0.477965 4.16552 0.994723 4.55921C1.51148 4.95291 2.15573 5.1145 2.78573 5.00845H9.91204L10.3396 6.25803L12.2875 12.5059L14.2353 18.7538C14.4254 19.4036 15.233 20.0034 15.8506 20.0034H32.4787C33.1438 20.0034 33.904 19.4036 34.094 18.7538L37.9422 6.25803C38.1322 5.60825 37.8472 5.00845 37.1821 5.00845H16.0882L14.2828 1.40967C14.0906 0.996605 13.7937 0.64738 13.4248 0.400448C13.056 0.153516 12.6296 0.0184569 12.1925 0.0101422L2.69071 0.0101422C2.54848 -0.00338072 2.40537 -0.00338072 2.26313 0.0101422C2.1682 0.00413878 2.07301 0.00413878 1.97808 0.0101422L2.02559 0.0101422ZM17.0384 25.0017C15.7081 25.0017 14.6629 26.1013 14.6629 27.5008C14.6629 28.9004 15.7081 30 17.0384 30C18.3686 30 19.4138 28.9004 19.4138 27.5008C19.4138 26.1013 18.3686 25.0017 17.0384 25.0017ZM31.291 25.0017C29.9607 25.0017 28.9155 26.1013 28.9155 27.5008C28.9155 28.9004 29.9607 30 31.291 30C32.6212 30 33.6664 28.9004 33.6664 27.5008C33.6664 26.1013 32.6212 25.0017 31.291 25.0017Z" fill="#692DA5"/>
</svg>